<svg id="vector" xmlns="http://www.w3.org/2000/svg" width="71" height="22" viewBox="0 0 71 22"><path fill="#FFFFFF" d="M53.391,16.362C53.902,16.362 54.312,15.953 54.312,15.451C54.312,14.949 53.902,14.541 53.391,14.541C52.881,14.541 52.469,14.948 52.469,15.451C52.469,15.955 52.883,16.362 53.391,16.362Z" id="path_0"/><path fill="#FFFFFF" d="M51.626,21.119H53.1L53.978,16.854H52.526L51.626,21.119Z" id="path_1"/><path fill="#FFFFFF" d="M43.692,15.035C43.692,15.035 43.098,15.022 42.86,15.476C42.62,15.929 39.853,21.119 39.853,21.119H41.614L42.399,19.535L44.153,19.541L44.295,21.113H46.005L45.239,15.035H43.692ZM42.925,18.329L43.891,16.306L44.076,18.329H42.926H42.925Z" id="path_2"/><path fill="#FFFFFF" d="M50.803,16.824C50.575,16.712 49.784,16.363 48.762,17.049L49.237,15.028H47.642L46.72,19.401C46.72,19.401 46.424,20.523 47.247,20.976C48.068,21.43 49.381,21.083 49.687,20.952C49.991,20.821 51.007,20.441 51.416,19.002C51.827,17.564 51.028,16.934 50.803,16.824M49.675,19.336C49.395,19.844 49.057,20.004 48.882,20.054C48.707,20.103 48.496,20.096 48.372,19.98C48.25,19.86 48.244,19.58 48.282,19.381C48.282,19.381 48.391,18.878 48.506,18.574C48.622,18.273 48.903,17.938 49.177,17.872C49.451,17.808 49.896,17.752 49.917,18.42C49.917,18.42 49.957,18.826 49.676,19.336" id="path_3"/><path fill="#FFFFFF" d="M56.568,17.854H57.551L57.763,16.854H56.758L57.117,15.252H56.592C55.893,15.252 55.598,15.568 55.48,16.131L55.327,16.854H54.651L54.439,17.854H55.115L54.658,20.03C54.658,20.03 54.475,20.834 55.388,21.101C55.388,21.101 55.908,21.253 56.722,21.08L56.965,19.97C56.965,19.97 56.631,20.067 56.406,19.963C56.181,19.855 56.192,19.585 56.237,19.366C56.284,19.148 56.568,17.855 56.568,17.855" id="path_4"/><path fill="#FFFFFF" d="M59.599,16.898C58.119,17.415 57.683,18.88 57.651,19.501C57.616,20.126 57.842,20.935 58.731,21.133C59.62,21.332 60.318,20.781 60.604,20.368C60.604,20.368 60.604,20.369 60.605,20.374V21.114H61.898V21.082C61.898,21.082 61.902,20.316 62.025,19.409L62.575,16.905C62.575,16.905 61.075,16.381 59.598,16.898M60.658,18.943C60.601,19.18 60.429,19.488 60.308,19.661C60.185,19.831 59.876,20.168 59.508,20.048C59.136,19.927 59.166,19.323 59.24,19.011C59.316,18.704 59.573,18.115 60.042,17.882C60.509,17.646 60.916,17.762 60.916,17.762C60.916,17.762 60.715,18.709 60.658,18.943Z" id="path_5"/><path fill="#FFFFFF" d="M66.928,16.82C66.704,16.707 65.872,16.37 64.85,17.058L65.342,15.028H63.746L62.844,19.398C62.844,19.398 62.55,20.52 63.372,20.972C64.194,21.427 65.507,21.081 65.813,20.946C66.118,20.817 67.134,20.437 67.544,18.999C67.952,17.562 67.154,16.929 66.928,16.819M65.801,19.331C65.52,19.84 65.183,20.004 65.007,20.051C64.833,20.1 64.621,20.091 64.499,19.975C64.375,19.856 64.369,19.576 64.408,19.376C64.408,19.376 64.516,18.874 64.632,18.573C64.747,18.269 65.029,17.934 65.302,17.868C65.577,17.803 66.024,17.747 66.042,18.416C66.042,18.416 66.082,18.821 65.802,19.331" id="path_6"/><path fill="#FFFFFF" d="M53.383,16.37C53.893,16.37 54.304,15.962 54.304,15.459C54.304,14.957 53.893,14.549 53.383,14.549C52.872,14.549 52.46,14.956 52.46,15.459C52.46,15.963 52.874,16.37 53.383,16.37Z" id="path_7"/><path fill="#FFFFFF" d="M15.957,4.245C15.809,1.008 14.024,0 11.545,0H8.044C7.825,0 7.606,0.074 7.532,0.361L6.356,5.665V5.68L5.491,9.571C5.491,9.716 5.563,9.823 5.786,9.823H7.934C8.08,9.823 8.191,9.751 8.226,9.645L9.832,2.374C9.905,2.014 9.976,1.942 10.344,1.942H10.963C12.42,1.942 13.297,2.304 13.441,4.318C13.624,6.8 12.311,11.406 9.467,11.406H5.065L4.593,13.5L5.455,13.495H9.285C15.557,13.495 16.03,5.829 15.958,4.245" fill-rule="evenodd" id="path_8"/><path fill="#FFFFFF" d="M5.718,0.469C5.791,0.216 5.755,0 5.389,0L3.422,0.036C3.02,0.036 2.983,0.072 2.873,0.36C2.218,3.381 0.723,9.823 0.032,12.847C-0.08,13.314 0.103,13.529 0.578,13.529H2.676L5.718,0.469Z" fill-rule="evenodd" id="path_9"/><path fill="#FFFFFF" d="M28.103,0.011L26.22,9.778C25.992,10.943 25.819,12.259 25.782,13.347H23.269L23.401,11.862H23.364C22.545,13.085 21.403,13.552 20.298,13.552C18.719,13.552 17.425,12.312 17.425,10.079C17.425,6.885 19.766,3.935 23.288,3.935C23.668,3.935 24.164,4.01 24.564,4.162L25.382,0.011H28.104H28.103ZM24.183,6.322C23.955,6.135 23.535,6.002 23.098,6.002C21.441,6.002 20.281,7.881 20.281,9.647C20.281,10.756 20.775,11.374 21.555,11.374C22.336,11.374 23.326,10.549 23.688,8.782L24.183,6.322Z" id="path_10"/><path fill="#FFFFFF" d="M27.839,13.347L29.609,4.162H32.348L30.58,13.347H27.838H27.839ZM31.302,3.017C30.542,3.017 29.991,2.49 29.991,1.701C29.991,0.782 30.733,0.16 31.571,0.16C32.409,0.16 32.96,0.687 32.96,1.494C32.96,2.454 32.217,3.017 31.342,3.017H31.302Z" id="path_11"/><path fill="#FFFFFF" d="M33.494,14.623C34.008,14.924 35.13,15.131 35.931,15.131C37.301,15.131 38.309,14.528 38.711,12.688L38.862,11.9H38.824C38.101,12.838 37.263,13.27 36.159,13.27C34.314,13.27 33.19,11.786 33.171,9.984C33.151,6.96 35.359,3.954 39.414,3.954C40.728,3.954 41.87,4.197 42.859,4.592L41.451,12.163C41.128,13.853 40.596,15.355 39.49,16.238C38.481,17.027 37.13,17.272 35.894,17.272C34.657,17.272 33.494,17.045 32.848,16.689L33.494,14.622V14.623ZM39.889,6.19C39.681,6.095 39.28,6.023 38.901,6.023C37.244,6.023 36.065,7.844 36.065,9.571C36.065,10.509 36.483,11.187 37.321,11.187C38.215,11.187 39.11,10.192 39.415,8.651L39.89,6.191L39.889,6.19Z" id="path_12"/><path fill="#FFFFFF" d="M43.51,13.347L45.279,4.162H48.02L46.25,13.347H43.511H43.51ZM46.972,3.017C46.211,3.017 45.66,2.49 45.66,1.701C45.66,0.782 46.403,0.16 47.239,0.16C48.077,0.16 48.629,0.687 48.629,1.494C48.629,2.454 47.886,3.017 47.01,3.017H46.972Z" id="path_13"/><path fill="#FFFFFF" d="M53.807,1.663L53.331,4.144H55.33L54.911,6.209H52.931L52.303,9.326C52.226,9.683 52.152,10.169 52.152,10.492C52.152,10.942 52.342,11.261 52.951,11.261C53.18,11.261 53.465,11.261 53.694,11.224L53.389,13.346C53.028,13.476 52.342,13.552 51.771,13.552C50.114,13.552 49.334,12.725 49.334,11.56C49.334,11.071 49.391,10.566 49.544,9.851L50.248,6.208H49.067L49.449,4.143H50.647L50.991,2.414L53.807,1.663V1.663Z" id="path_14"/><path fill="#FFFFFF" d="M61.233,13.348C61.252,12.802 61.309,12.182 61.348,11.524H61.309C60.452,13.047 59.253,13.553 58.168,13.553C56.493,13.553 55.351,12.275 55.351,10.36C55.351,7.26 57.444,3.956 62.014,3.956C63.136,3.956 64.316,4.163 65.095,4.407L64.125,9.215C63.895,10.398 63.707,12.201 63.745,13.348H61.232L61.233,13.348ZM62.015,6.078C61.804,6.04 61.558,6.002 61.271,6.002C59.501,6.002 58.206,8.144 58.206,9.854C58.206,10.756 58.569,11.374 59.329,11.374C60.149,11.374 61.157,10.455 61.595,8.2L62.015,6.079V6.078Z" id="path_15"/><path fill="#FFFFFF" d="M65.671,13.347L68.259,0.011H71L68.411,13.347H65.671Z" id="path_16"/></svg>